<?xml version="1.0" encoding="UTF-8" standalone="no"?>
<svg
   xmlns="http://www.w3.org/2000/svg"   width="630px"
   height="891px"
   id="judoshiai"
   version="1.1"
   xmlns:sodipodi="http://sodipodi.sourceforge.net/DTD/sodipodi-0.dtd"
   xmlns:inkscape="http://www.inkscape.org/namespaces/inkscape">
<style type="text/css"> <![CDATA[ tspan.cmpx { fill: red; } ]]> </style>
<sodipodi:namedview
id="base"
pagecolor="#ffffff"
bordercolor="#666666"
borderopacity="1.0"
inkscape:pageopacity="0.0"
inkscape:pageshadow="2"
inkscape:zoom="1"
inkscape:cx="185.84668"
inkscape:cy="880.85263"
inkscape:document-units="px"
inkscape:current-layer="layer1"
inkscape:window-width="877"
inkscape:window-height="739"
inkscape:window-x="177"
inkscape:window-y="31"
showgrid="false"
inkscape:window-maximized="0" />
   <g
      id="layer1"
      style="opacity:1">
<rect x='0.00' y='0.00' width='630.00' height='891.00' style='fill:white;stroke:none'/>
<text style="font-size:21.38px;font-style:normal;font-weight:bold;letter-spacing:0px;word-spacing:0px;fill:#000000;fill-opacity:1;stroke:none;font-family:Arial;text-anchor:middle;text-align:center"
x='315.00' y='44.55'><tspan>%i-competition  %i-date  %i-place   %i-catname</tspan></text>
<text style="font-size:10.69px;font-style:normal;font-weight:bold;line-height:125%;letter-spacing:0px;word-spacing:0px;fill:#000000;fill-opacity:1;stroke:none;font-family:Arial;text-anchor:end;text-align:left"
x='598.50' y='63.97'><tspan>%t0: %n</tspan></text>
<path d="M 31.50,89.10 l 181.34,0.00 a4.02,4.02 0 0,1 4.02,4.02 l 0.00,2.12 M 31.50,117.49 l 181.34,0.00 a4.02,4.02 0 0,0 4.02,-4.02 l 0.00,-2.12" style="fill:none; stroke:black; stroke-width:1"/>
<circle cx="216.86" cy="103.29" r="8.05" stroke="black" stroke-width="1" fill="white"/><text x='216.86' y='107.32' style='font-size:10px;font-style:normal;font-weight:normal;fill:#000000;fill-opacity:1;stroke:none;font-family:Arial;text-anchor:middle;text-align:center'><tspan>1</tspan></text>
<text x='37.80' y='82.33' font-family='Arial' font-size='10' fill='black'><tspan>1. %m1-1-hm1-first-s-last-s-club</tspan></text>
<text x='37.80' y='110.72' font-family='Arial' font-size='10' fill='black'><tspan>9. %m1-2-hm1-first-s-last-s-club</tspan></text>
<text x='218.41' y='95.15' font-family='Arial' font-size='10' fill='black'><tspan>%m1p1-1</tspan></text>
<text x='218.35' y='119.24' font-family='Arial' font-size='10' fill='black'><tspan>%m1p2-1</tspan></text>
<path d="M 31.50,145.87 l 181.34,0.00 a4.02,4.02 0 0,1 4.02,4.02 l 0.00,2.12 M 31.50,174.26 l 181.34,0.00 a4.02,4.02 0 0,0 4.02,-4.02 l 0.00,-2.12" style="fill:none; stroke:black; stroke-width:1"/>
<circle cx="216.86" cy="160.07" r="8.05" stroke="black" stroke-width="1" fill="white"/><text x='216.86' y='164.09' style='font-size:10px;font-style:normal;font-weight:normal;fill:#000000;fill-opacity:1;stroke:none;font-family:Arial;text-anchor:middle;text-align:center'><tspan>2</tspan></text>
<text x='37.80' y='139.11' font-family='Arial' font-size='10' fill='black'><tspan>5. %m2-1-hm1-first-s-last-s-club</tspan></text>
<text x='37.80' y='167.49' font-family='Arial' font-size='10' fill='black'><tspan>13. %m2-2-hm1-first-s-last-s-club</tspan></text>
<text x='217.66' y='151.93' font-family='Arial' font-size='10' fill='black'><tspan>%m2p1-1</tspan></text>
<text x='218.41' y='176.29' font-family='Arial' font-size='10' fill='black'><tspan>%m2p2-1</tspan></text>
<path d="M 31.50,202.65 l 181.34,0.00 a4.02,4.02 0 0,1 4.02,4.02 l 0.00,2.12 M 31.50,231.04 l 181.34,0.00 a4.02,4.02 0 0,0 4.02,-4.02 l 0.00,-2.12" style="fill:none; stroke:black; stroke-width:1"/>
<circle cx="216.86" cy="216.84" r="8.05" stroke="black" stroke-width="1" fill="white"/><text x='216.86' y='220.87' style='font-size:10px;font-style:normal;font-weight:normal;fill:#000000;fill-opacity:1;stroke:none;font-family:Arial;text-anchor:middle;text-align:center'><tspan>3</tspan></text>
<text x='37.80' y='195.88' font-family='Arial' font-size='10' fill='black'><tspan>3. %m3-1-hm1-first-s-last-s-club</tspan></text>
<text x='37.80' y='224.27' font-family='Arial' font-size='10' fill='black'><tspan>11. %m3-2-hm1-first-s-last-s-club</tspan></text>
<text x='218.41' y='208.49' font-family='Arial' font-size='10' fill='black'><tspan>%m3p1-1</tspan></text>
<text x='218.41' y='233.07' font-family='Arial' font-size='10' fill='black'><tspan>%m3p2-1</tspan></text>
<path d="M 31.50,259.42 l 181.34,0.00 a4.02,4.02 0 0,1 4.02,4.02 l 0.00,2.12 M 31.50,287.81 l 181.34,0.00 a4.02,4.02 0 0,0 4.02,-4.02 l 0.00,-2.12" style="fill:none; stroke:black; stroke-width:1"/>
<circle cx="216.86" cy="273.62" r="8.05" stroke="black" stroke-width="1" fill="white"/><text x='216.86' y='277.64' style='font-size:10px;font-style:normal;font-weight:normal;fill:#000000;fill-opacity:1;stroke:none;font-family:Arial;text-anchor:middle;text-align:center'><tspan>4</tspan></text>
<text x='37.80' y='252.66' font-family='Arial' font-size='10' fill='black'><tspan>7. %m4-1-hm1-first-s-last-s-club</tspan></text>
<text x='37.80' y='281.04' font-family='Arial' font-size='10' fill='black'><tspan>15. %m4-2-hm1-first-s-last-s-club</tspan></text>
<text x='217.66' y='265.48' font-family='Arial' font-size='10' fill='black'><tspan>%m4p1-1</tspan></text>
<text x='218.41' y='289.09' font-family='Arial' font-size='10' fill='black'><tspan>%m4p2-1</tspan></text>
<path d="M 31.50,316.20 l 181.34,0.00 a4.02,4.02 0 0,1 4.02,4.02 l 0.00,2.12 M 31.50,344.59 l 181.34,0.00 a4.02,4.02 0 0,0 4.02,-4.02 l 0.00,-2.12" style="fill:none; stroke:black; stroke-width:1"/>
<circle cx="216.86" cy="330.39" r="8.05" stroke="black" stroke-width="1" fill="white"/><text x='216.86' y='334.42' style='font-size:10px;font-style:normal;font-weight:normal;fill:#000000;fill-opacity:1;stroke:none;font-family:Arial;text-anchor:middle;text-align:center'><tspan>5</tspan></text>
<text x='37.80' y='309.43' font-family='Arial' font-size='10' fill='black'><tspan>2. %m5-1-hm1-first-s-last-s-club</tspan></text>
<text x='37.80' y='337.82' font-family='Arial' font-size='10' fill='black'><tspan>10. %m5-2-hm1-first-s-last-s-club</tspan></text>
<text x='217.66' y='321.50' font-family='Arial' font-size='10' fill='black'><tspan>%m5p1-1</tspan></text>
<text x='218.41' y='346.61' font-family='Arial' font-size='10' fill='black'><tspan>%m5p2-1</tspan></text>
<path d="M 31.50,372.97 l 181.34,0.00 a4.02,4.02 0 0,1 4.02,4.02 l 0.00,2.12 M 31.50,401.36 l 181.34,0.00 a4.02,4.02 0 0,0 4.02,-4.02 l 0.00,-2.12" style="fill:none; stroke:black; stroke-width:1"/>
<circle cx="216.86" cy="387.17" r="8.05" stroke="black" stroke-width="1" fill="white"/><text x='216.86' y='391.19' style='font-size:10px;font-style:normal;font-weight:normal;fill:#000000;fill-opacity:1;stroke:none;font-family:Arial;text-anchor:middle;text-align:center'><tspan>6</tspan></text>
<text x='37.80' y='366.21' font-family='Arial' font-size='10' fill='black'><tspan>6. %m6-1-hm1-first-s-last-s-club</tspan></text>
<text x='37.80' y='394.59' font-family='Arial' font-size='10' fill='black'><tspan>14. %m6-2-hm1-first-s-last-s-club</tspan></text>
<text x='218.41' y='379.03' font-family='Arial' font-size='10' fill='black'><tspan>%m6p1-1</tspan></text>
<text x='218.35' y='403.11' font-family='Arial' font-size='10' fill='black'><tspan>%m6p2-1</tspan></text>
<path d="M 31.50,429.75 l 181.34,0.00 a4.02,4.02 0 0,1 4.02,4.02 l 0.00,2.12 M 31.50,458.13 l 181.34,0.00 a4.02,4.02 0 0,0 4.02,-4.02 l 0.00,-2.12" style="fill:none; stroke:black; stroke-width:1"/>
<circle cx="216.86" cy="443.94" r="8.05" stroke="black" stroke-width="1" fill="white"/><text x='216.86' y='447.96' style='font-size:10px;font-style:normal;font-weight:normal;fill:#000000;fill-opacity:1;stroke:none;font-family:Arial;text-anchor:middle;text-align:center'><tspan>7</tspan></text>
<text x='37.80' y='422.98' font-family='Arial' font-size='10' fill='black'><tspan>4. %m7-1-hm1-first-s-last-s-club</tspan></text>
<text x='37.80' y='451.37' font-family='Arial' font-size='10' fill='black'><tspan>12. %m7-2-hm1-first-s-last-s-club</tspan></text>
<text x='218.41' y='435.80' font-family='Arial' font-size='10' fill='black'><tspan>%m7p1-1</tspan></text>
<text x='218.41' y='460.02' font-family='Arial' font-size='10' fill='black'><tspan>%m7p2-1</tspan></text>
<path d="M 31.50,486.52 l 181.34,0.00 a4.02,4.02 0 0,1 4.02,4.02 l 0.00,2.12 M 31.50,514.91 l 181.34,0.00 a4.02,4.02 0 0,0 4.02,-4.02 l 0.00,-2.12" style="fill:none; stroke:black; stroke-width:1"/>
<circle cx="216.86" cy="500.72" r="8.05" stroke="black" stroke-width="1" fill="white"/><text x='216.86' y='504.74' style='font-size:10px;font-style:normal;font-weight:normal;fill:#000000;fill-opacity:1;stroke:none;font-family:Arial;text-anchor:middle;text-align:center'><tspan>8</tspan></text>
<text x='37.80' y='479.75' font-family='Arial' font-size='10' fill='black'><tspan>8. %m8-1-hm1-first-s-last-s-club</tspan></text>
<text x='37.80' y='508.14' font-family='Arial' font-size='10' fill='black'><tspan>16. %m8-2-hm1-first-s-last-s-club</tspan></text>
<text x='217.66' y='492.57' font-family='Arial' font-size='10' fill='black'><tspan>%m8p1-1</tspan></text>
<text x='218.41' y='516.94' font-family='Arial' font-size='10' fill='black'><tspan>%m8p2-1</tspan></text>
<path d="M 224.91,103.29 l 80.54,0.00 a4.02,4.02 0 0,1 4.02,4.02 l 0.00,16.32 M 224.91,160.07 l 80.54,0.00 a4.02,4.02 0 0,0 4.02,-4.02 l 0.00,-16.32" style="fill:none; stroke:black; stroke-width:1"/>
<circle cx="309.47" cy="131.68" r="8.05" stroke="black" stroke-width="1" fill="white"/><text x='309.47' y='135.70' style='font-size:10px;font-style:normal;font-weight:normal;fill:#000000;fill-opacity:1;stroke:none;font-family:Arial;text-anchor:middle;text-align:center'><tspan>9</tspan></text>
<text x='231.21' y='96.53' font-family='Arial' font-size='10' fill='black'><tspan>%m9-1-hm1-last</tspan></text>
<text x='231.21' y='153.30' font-family='Arial' font-size='10' fill='black'><tspan>%m9-2-hm1-last</tspan></text>
<text x='311.02' y='110.77' font-family='Arial' font-size='10' fill='black'><tspan>%m9p1-1</tspan></text>
<text x='310.96' y='163.24' font-family='Arial' font-size='10' fill='black'><tspan>%m9p2-1</tspan></text>
<path d="M 224.91,216.84 l 80.54,0.00 a4.02,4.02 0 0,1 4.02,4.02 l 0.00,16.32 M 224.91,273.62 l 80.54,0.00 a4.02,4.02 0 0,0 4.02,-4.02 l 0.00,-16.32" style="fill:none; stroke:black; stroke-width:1"/>
<circle cx="309.47" cy="245.23" r="8.05" stroke="black" stroke-width="1" fill="white"/><text x='309.47' y='249.25' style='font-size:10px;font-style:normal;font-weight:normal;fill:#000000;fill-opacity:1;stroke:none;font-family:Arial;text-anchor:middle;text-align:center'><tspan>10</tspan></text>
<text x='231.21' y='210.08' font-family='Arial' font-size='10' fill='black'><tspan>%m10-1-hm1-last</tspan></text>
<text x='231.21' y='266.85' font-family='Arial' font-size='10' fill='black'><tspan>%m10-2-hm1-last</tspan></text>
<text x='310.27' y='224.32' font-family='Arial' font-size='10' fill='black'><tspan>%m10p1-1</tspan></text>
<text x='311.02' y='277.21' font-family='Arial' font-size='10' fill='black'><tspan>%m10p2-1</tspan></text>
<path d="M 224.91,330.39 l 80.54,0.00 a4.02,4.02 0 0,1 4.02,4.02 l 0.00,16.32 M 224.91,387.17 l 80.54,0.00 a4.02,4.02 0 0,0 4.02,-4.02 l 0.00,-16.32" style="fill:none; stroke:black; stroke-width:1"/>
<circle cx="309.47" cy="358.78" r="8.05" stroke="black" stroke-width="1" fill="white"/><text x='309.47' y='362.80' style='font-size:10px;font-style:normal;font-weight:normal;fill:#000000;fill-opacity:1;stroke:none;font-family:Arial;text-anchor:middle;text-align:center'><tspan>11</tspan></text>
<text x='231.21' y='323.62' font-family='Arial' font-size='10' fill='black'><tspan>%m11-1-hm1-last</tspan></text>
<text x='231.21' y='380.40' font-family='Arial' font-size='10' fill='black'><tspan>%m11-2-hm1-last</tspan></text>
<text x='311.02' y='337.66' font-family='Arial' font-size='10' fill='black'><tspan>%m11p1-1</tspan></text>
<text x='311.02' y='390.62' font-family='Arial' font-size='10' fill='black'><tspan>%m11p2-1</tspan></text>
<path d="M 224.91,443.94 l 80.54,0.00 a4.02,4.02 0 0,1 4.02,4.02 l 0.00,16.32 M 224.91,500.72 l 80.54,0.00 a4.02,4.02 0 0,0 4.02,-4.02 l 0.00,-16.32" style="fill:none; stroke:black; stroke-width:1"/>
<circle cx="309.47" cy="472.33" r="8.05" stroke="black" stroke-width="1" fill="white"/><text x='309.47' y='476.35' style='font-size:10px;font-style:normal;font-weight:normal;fill:#000000;fill-opacity:1;stroke:none;font-family:Arial;text-anchor:middle;text-align:center'><tspan>12</tspan></text>
<text x='231.21' y='437.17' font-family='Arial' font-size='10' fill='black'><tspan>%m12-1-hm1-last</tspan></text>
<text x='231.21' y='493.95' font-family='Arial' font-size='10' fill='black'><tspan>%m12-2-hm1-last</tspan></text>
<text x='310.27' y='451.42' font-family='Arial' font-size='10' fill='black'><tspan>%m12p1-1</tspan></text>
<text x='311.02' y='504.31' font-family='Arial' font-size='10' fill='black'><tspan>%m12p2-1</tspan></text>
<path d="M 31.50,543.30 l 80.54,0.00 a4.02,4.02 0 0,1 4.02,4.02 l 0.00,9.22 M 31.50,585.88 l 80.54,0.00 a4.02,4.02 0 0,0 4.02,-4.02 l 0.00,-9.22" style="fill:none; stroke:black; stroke-width:1"/>
<circle cx="116.06" cy="564.59" r="8.05" stroke="black" stroke-width="1" fill="white"/><text x='116.06' y='568.61' style='font-size:10px;font-style:normal;font-weight:normal;fill:#000000;fill-opacity:1;stroke:none;font-family:Arial;text-anchor:middle;text-align:center'><tspan>13</tspan></text>
<text x='37.80' y='536.53' font-family='Arial' font-size='10' fill='black'><tspan>%m13-1-hm1-last</tspan></text>
<text x='37.80' y='579.11' font-family='Arial' font-size='10' fill='black'><tspan>%m13-2-hm1-last</tspan></text>
<text x='116.86' y='550.77' font-family='Arial' font-size='10' fill='black'><tspan>%m13p1-1</tspan></text>
<text x='117.61' y='589.33' font-family='Arial' font-size='10' fill='black'><tspan>%m13p2-1</tspan></text>
<path d="M 31.50,628.46 l 80.54,0.00 a4.02,4.02 0 0,1 4.02,4.02 l 0.00,9.22 M 31.50,671.04 l 80.54,0.00 a4.02,4.02 0 0,0 4.02,-4.02 l 0.00,-9.22" style="fill:none; stroke:black; stroke-width:1"/>
<circle cx="116.06" cy="649.75" r="8.05" stroke="black" stroke-width="1" fill="white"/><text x='116.06' y='653.77' style='font-size:10px;font-style:normal;font-weight:normal;fill:#000000;fill-opacity:1;stroke:none;font-family:Arial;text-anchor:middle;text-align:center'><tspan>14</tspan></text>
<text x='37.80' y='621.69' font-family='Arial' font-size='10' fill='black'><tspan>%m14-1-hm1-last</tspan></text>
<text x='37.80' y='664.27' font-family='Arial' font-size='10' fill='black'><tspan>%m14-2-hm1-last</tspan></text>
<text x='117.61' y='636.07' font-family='Arial' font-size='10' fill='black'><tspan>%m14p1-1</tspan></text>
<text x='117.55' y='674.35' font-family='Arial' font-size='10' fill='black'><tspan>%m14p2-1</tspan></text>
<path d="M 31.50,713.62 l 80.54,0.00 a4.02,4.02 0 0,1 4.02,4.02 l 0.00,9.22 M 31.50,756.20 l 80.54,0.00 a4.02,4.02 0 0,0 4.02,-4.02 l 0.00,-9.22" style="fill:none; stroke:black; stroke-width:1"/>
<circle cx="116.06" cy="734.91" r="8.05" stroke="black" stroke-width="1" fill="white"/><text x='116.06' y='738.93' style='font-size:10px;font-style:normal;font-weight:normal;fill:#000000;fill-opacity:1;stroke:none;font-family:Arial;text-anchor:middle;text-align:center'><tspan>15</tspan></text>
<text x='37.80' y='706.85' font-family='Arial' font-size='10' fill='black'><tspan>%m15-1-hm1-last</tspan></text>
<text x='37.80' y='749.43' font-family='Arial' font-size='10' fill='black'><tspan>%m15-2-hm1-last</tspan></text>
<text x='117.61' y='721.24' font-family='Arial' font-size='10' fill='black'><tspan>%m15p1-1</tspan></text>
<text x='117.61' y='759.51' font-family='Arial' font-size='10' fill='black'><tspan>%m15p2-1</tspan></text>
<path d="M 31.50,798.78 l 80.54,0.00 a4.02,4.02 0 0,1 4.02,4.02 l 0.00,9.22 M 31.50,841.36 l 80.54,0.00 a4.02,4.02 0 0,0 4.02,-4.02 l 0.00,-9.22" style="fill:none; stroke:black; stroke-width:1"/>
<circle cx="116.06" cy="820.07" r="8.05" stroke="black" stroke-width="1" fill="white"/><text x='116.06' y='824.10' style='font-size:10px;font-style:normal;font-weight:normal;fill:#000000;fill-opacity:1;stroke:none;font-family:Arial;text-anchor:middle;text-align:center'><tspan>16</tspan></text>
<text x='37.80' y='792.01' font-family='Arial' font-size='10' fill='black'><tspan>%m16-1-hm1-last</tspan></text>
<text x='37.80' y='834.59' font-family='Arial' font-size='10' fill='black'><tspan>%m16-2-hm1-last</tspan></text>
<text x='116.86' y='806.26' font-family='Arial' font-size='10' fill='black'><tspan>%m16p1-1</tspan></text>
<text x='117.61' y='844.95' font-family='Arial' font-size='10' fill='black'><tspan>%m16p2-1</tspan></text>
<path d="M 124.11,564.59 l 80.54,0.00 a4.02,4.02 0 0,1 4.02,4.02 l 0.00,30.51 M 124.11,649.75 l 80.54,0.00 a4.02,4.02 0 0,0 4.02,-4.02 l 0.00,-30.51" style="fill:none; stroke:black; stroke-width:1"/>
<circle cx="208.67" cy="607.17" r="8.05" stroke="black" stroke-width="1" fill="white"/><text x='208.67' y='611.19' style='font-size:10px;font-style:normal;font-weight:normal;fill:#000000;fill-opacity:1;stroke:none;font-family:Arial;text-anchor:middle;text-align:center'><tspan>17</tspan></text>
<text x='130.41' y='557.82' font-family='Arial' font-size='10' fill='black'><tspan>%m17-1-hm1-last</tspan></text>
<text x='130.41' y='642.98' font-family='Arial' font-size='10' fill='black'><tspan>%m17-2-hm1-last</tspan></text>
<text x='210.22' y='572.06' font-family='Arial' font-size='10' fill='black'><tspan>%m17p1-1</tspan></text>
<text x='210.16' y='653.06' font-family='Arial' font-size='10' fill='black'><tspan>%m17p2-1</tspan></text>
<path d="M 124.11,734.91 l 80.54,0.00 a4.02,4.02 0 0,1 4.02,4.02 l 0.00,30.51 M 124.11,820.07 l 80.54,0.00 a4.02,4.02 0 0,0 4.02,-4.02 l 0.00,-30.51" style="fill:none; stroke:black; stroke-width:1"/>
<circle cx="208.67" cy="777.49" r="8.05" stroke="black" stroke-width="1" fill="white"/><text x='208.67' y='781.51' style='font-size:10px;font-style:normal;font-weight:normal;fill:#000000;fill-opacity:1;stroke:none;font-family:Arial;text-anchor:middle;text-align:center'><tspan>18</tspan></text>
<text x='130.41' y='728.14' font-family='Arial' font-size='10' fill='black'><tspan>%m18-1-hm1-last</tspan></text>
<text x='130.41' y='813.30' font-family='Arial' font-size='10' fill='black'><tspan>%m18-2-hm1-last</tspan></text>
<text x='209.47' y='742.38' font-family='Arial' font-size='10' fill='black'><tspan>%m18p1-1</tspan></text>
<text x='210.22' y='823.52' font-family='Arial' font-size='10' fill='black'><tspan>%m18p2-1</tspan></text>
<path d="M 317.52,131.68 l 80.54,0.00 a4.02,4.02 0 0,1 4.02,4.02 l 0.00,44.70 M 317.52,245.23 l 80.54,0.00 a4.02,4.02 0 0,0 4.02,-4.02 l 0.00,-44.70" style="fill:none; stroke:black; stroke-width:1"/>
<circle cx="402.08" cy="188.46" r="8.05" stroke="black" stroke-width="1" fill="white"/><text x='402.08' y='192.48' style='font-size:10px;font-style:normal;font-weight:normal;fill:#000000;fill-opacity:1;stroke:none;font-family:Arial;text-anchor:middle;text-align:center'><tspan>19</tspan></text>
<text x='323.82' y='124.91' font-family='Arial' font-size='10' fill='black'><tspan>%m19-1-hm1-last</tspan></text>
<text x='323.82' y='238.46' font-family='Arial' font-size='10' fill='black'><tspan>%m19-2-hm1-last</tspan></text>
<text x='403.63' y='138.94' font-family='Arial' font-size='10' fill='black'><tspan>%m19p1-1</tspan></text>
<text x='403.63' y='248.68' font-family='Arial' font-size='10' fill='black'><tspan>%m19p2-1</tspan></text>
<path d="M 317.52,358.78 l 80.54,0.00 a4.02,4.02 0 0,1 4.02,4.02 l 0.00,44.70 M 317.52,472.33 l 80.54,0.00 a4.02,4.02 0 0,0 4.02,-4.02 l 0.00,-44.70" style="fill:none; stroke:black; stroke-width:1"/>
<circle cx="402.08" cy="415.55" r="8.05" stroke="black" stroke-width="1" fill="white"/><text x='402.08' y='419.58' style='font-size:10px;font-style:normal;font-weight:normal;fill:#000000;fill-opacity:1;stroke:none;font-family:Arial;text-anchor:middle;text-align:center'><tspan>20</tspan></text>
<text x='323.82' y='352.01' font-family='Arial' font-size='10' fill='black'><tspan>%m20-1-hm1-last</tspan></text>
<text x='323.82' y='465.56' font-family='Arial' font-size='10' fill='black'><tspan>%m20-2-hm1-last</tspan></text>
<text x='402.88' y='366.25' font-family='Arial' font-size='10' fill='black'><tspan>%m20p1-1</tspan></text>
<text x='403.63' y='475.78' font-family='Arial' font-size='10' fill='black'><tspan>%m20p2-1</tspan></text>
<path d="M 216.72,607.17 l 80.54,0.00 a4.02,4.02 0 0,1 4.02,4.02 l 0.00,9.22 M 216.72,649.75 l 80.54,0.00 a4.02,4.02 0 0,0 4.02,-4.02 l 0.00,-9.22" style="fill:none; stroke:black; stroke-width:1"/>
<circle cx="301.28" cy="628.46" r="8.05" stroke="black" stroke-width="1" fill="white"/><text x='301.28' y='632.48' style='font-size:10px;font-style:normal;font-weight:normal;fill:#000000;fill-opacity:1;stroke:none;font-family:Arial;text-anchor:middle;text-align:center'><tspan>21</tspan></text>
<text x='216.72' y='655.06' style='font-size:6.42px;font-style:normal;font-weight:normal;fill:#000000;fill-opacity:1;stroke:none;font-family:Arial'>20</text>
<text x='223.02' y='600.40' font-family='Arial' font-size='10' fill='black'><tspan>%m21-1-hm1-last</tspan></text>
<text x='223.02' y='642.98' font-family='Arial' font-size='10' fill='black'><tspan>%m21-2-hm1-last</tspan></text>
<text x='302.08' y='614.78' font-family='Arial' font-size='10' fill='black'><tspan>%m21p1-1</tspan></text>
<text x='302.83' y='653.20' font-family='Arial' font-size='10' fill='black'><tspan>%m21p2-1</tspan></text>
<path d="M 216.72,777.49 l 80.54,0.00 a4.02,4.02 0 0,1 4.02,4.02 l 0.00,9.22 M 216.72,820.07 l 80.54,0.00 a4.02,4.02 0 0,0 4.02,-4.02 l 0.00,-9.22" style="fill:none; stroke:black; stroke-width:1"/>
<circle cx="301.28" cy="798.78" r="8.05" stroke="black" stroke-width="1" fill="white"/><text x='301.28' y='802.80' style='font-size:10px;font-style:normal;font-weight:normal;fill:#000000;fill-opacity:1;stroke:none;font-family:Arial;text-anchor:middle;text-align:center'><tspan>22</tspan></text>
<text x='216.72' y='825.38' style='font-size:6.42px;font-style:normal;font-weight:normal;fill:#000000;fill-opacity:1;stroke:none;font-family:Arial'>19</text>
<text x='223.02' y='770.72' font-family='Arial' font-size='10' fill='black'><tspan>%m22-1-hm1-last</tspan></text>
<text x='223.02' y='813.30' font-family='Arial' font-size='10' fill='black'><tspan>%m22-2-hm1-last</tspan></text>
<text x='302.83' y='784.97' font-family='Arial' font-size='10' fill='black'><tspan>%m22p1-1</tspan></text>
<text x='302.77' y='823.24' font-family='Arial' font-size='10' fill='black'><tspan>%m22p2-1</tspan></text>
<path d="M 410.13,188.46 l 80.54,0.00 a4.02,4.02 0 0,1 4.02,4.02 l 0.00,101.48 M 410.13,415.55 l 80.54,0.00 a4.02,4.02 0 0,0 4.02,-4.02 l 0.00,-101.48" style="fill:none; stroke:black; stroke-width:1"/>
<circle cx="494.69" cy="302.00" r="8.05" stroke="black" stroke-width="1" fill="white"/><text x='494.69' y='306.03' style='font-size:10px;font-style:normal;font-weight:normal;fill:#000000;fill-opacity:1;stroke:none;font-family:Arial;text-anchor:middle;text-align:center'><tspan>23</tspan></text>
<text x='416.43' y='181.69' font-family='Arial' font-size='10' fill='black'><tspan>%m23-1-hm1-last</tspan></text>
<text x='416.43' y='408.79' font-family='Arial' font-size='10' fill='black'><tspan>%m23-2-hm1-last</tspan></text>
<text x='496.24' y='195.93' font-family='Arial' font-size='10' fill='black'><tspan>%m23p1-1</tspan></text>
<text x='496.24' y='418.86' font-family='Arial' font-size='10' fill='black'><tspan>%m23p2-1</tspan></text>
<path d="M 309.33,628.46 l 63.00,0.00"
style="fill:none; stroke:black; stroke-width:1"/>
<text x='315.63' y='621.69' font-family='Arial' font-size='10' fill='black'><tspan>%m21-winner-last</tspan></text>
<path d="M 309.33,798.78 l 63.00,0.00"
style="fill:none; stroke:black; stroke-width:1"/>
<text x='315.63' y='792.01' font-family='Arial' font-size='10' fill='black'><tspan>%m22-winner-last</tspan></text>
<path d="M 502.74,302.00 l 63.00,0.00"
style="fill:none; stroke:black; stroke-width:1"/>
<text x='509.04' y='295.24' font-family='Arial' font-size='10' fill='black'><tspan>%m23-winner-last</tspan></text>
<path d="M 415.80,499.06 l 189.00,0.00 l 0.00,160.38 l -189.00,0.00 z" style="fill:none; stroke:black; stroke-width:2"/>
<path d="M 415.80,516.88 l 189.00,0.00" style="fill:none; stroke:black; stroke-width:1"/>
<path d="M 415.80,534.70 l 189.00,0.00" style="fill:none; stroke:black; stroke-width:1"/>
<path d="M 415.80,552.52 l 189.00,0.00" style="fill:none; stroke:black; stroke-width:1"/>
<path d="M 415.80,570.34 l 189.00,0.00" style="fill:none; stroke:black; stroke-width:1"/>
<path d="M 415.80,588.16 l 189.00,0.00" style="fill:none; stroke:black; stroke-width:1"/>
<path d="M 415.80,605.98 l 189.00,0.00" style="fill:none; stroke:black; stroke-width:1"/>
<path d="M 415.80,623.80 l 189.00,0.00" style="fill:none; stroke:black; stroke-width:1"/>
<path d="M 415.80,641.62 l 189.00,0.00" style="fill:none; stroke:black; stroke-width:1"/>
<path d="M 447.30,516.88 l 0.00,142.56" style="fill:none; stroke:black; stroke-width:1"/>
<text x='487.87' y='492.60' style='font-size:12.83px;font-style:normal;font-weight:bold;fill:#000000;fill-opacity:1;stroke:none;font-family:Arial;text-anchor:middle;text-align:center'><tspan>%t18</tspan></text>
<text x='431.55' y='511.84' style='font-size:10.69px;font-style:normal;font-weight:bold;fill:#000000;fill-opacity:1;stroke:none;font-family:Arial;text-anchor:middle;text-align:center'><tspan>%t22</tspan></text>
<text x='526.05' y='511.84' style='font-size:10.69px;font-style:normal;font-weight:bold;fill:#000000;fill-opacity:1;stroke:none;font-family:Arial;text-anchor:middle;text-align:center'><tspan>%t6</tspan></text>
<text x='431.55' y='529.74' style='font-size:10.69px;font-style:normal;font-weight:normal;fill:#000000;fill-opacity:1;stroke:none;font-family:Arial;text-anchor:middle;text-align:center'><tspan>1</tspan></text>
<text x='431.55' y='547.56' style='font-size:10.69px;font-style:normal;font-weight:normal;fill:#000000;fill-opacity:1;stroke:none;font-family:Arial;text-anchor:middle;text-align:center'><tspan>2</tspan></text>
<text x='431.55' y='565.31' style='font-size:10.69px;font-style:normal;font-weight:normal;fill:#000000;fill-opacity:1;stroke:none;font-family:Arial;text-anchor:middle;text-align:center'><tspan>3</tspan></text>
<text x='431.55' y='583.13' style='font-size:10.69px;font-style:normal;font-weight:normal;fill:#000000;fill-opacity:1;stroke:none;font-family:Arial;text-anchor:middle;text-align:center'><tspan>3</tspan></text>
<text x='431.55' y='600.88' style='font-size:10.69px;font-style:normal;font-weight:normal;fill:#000000;fill-opacity:1;stroke:none;font-family:Arial;text-anchor:middle;text-align:center'><tspan>5</tspan></text>
<text x='431.55' y='618.70' style='font-size:10.69px;font-style:normal;font-weight:normal;fill:#000000;fill-opacity:1;stroke:none;font-family:Arial;text-anchor:middle;text-align:center'><tspan>5</tspan></text>
<text x='431.55' y='636.59' style='font-size:10.69px;font-style:normal;font-weight:normal;fill:#000000;fill-opacity:1;stroke:none;font-family:Arial;text-anchor:middle;text-align:center'><tspan>7</tspan></text>
<text x='431.55' y='654.41' style='font-size:10.69px;font-style:normal;font-weight:normal;fill:#000000;fill-opacity:1;stroke:none;font-family:Arial;text-anchor:middle;text-align:center'><tspan>7</tspan></text>
<text x='453.60' y='529.65' style='font-size:10.69px;font-style:normal;font-weight:normal;fill:#000000;fill-opacity:1;stroke:none;font-family:Arial'><tspan>%r1hm2-first-s-last-s-club</tspan></text>
<text x='453.60' y='547.47' style='font-size:10.69px;font-style:normal;font-weight:normal;fill:#000000;fill-opacity:1;stroke:none;font-family:Arial'><tspan>%r2hm2-first-s-last-s-club</tspan></text>
<text x='453.60' y='565.29' style='font-size:10.69px;font-style:normal;font-weight:normal;fill:#000000;fill-opacity:1;stroke:none;font-family:Arial'><tspan>%r3hm2-first-s-last-s-club</tspan></text>
<text x='453.60' y='583.11' style='font-size:10.69px;font-style:normal;font-weight:normal;fill:#000000;fill-opacity:1;stroke:none;font-family:Arial'><tspan>%r4hm2-first-s-last-s-club</tspan></text>
<text x='453.60' y='600.93' style='font-size:10.69px;font-style:normal;font-weight:normal;fill:#000000;fill-opacity:1;stroke:none;font-family:Arial'><tspan>%r5hm2-first-s-last-s-club</tspan></text>
<text x='453.60' y='618.75' style='font-size:10.69px;font-style:normal;font-weight:normal;fill:#000000;fill-opacity:1;stroke:none;font-family:Arial'><tspan>%r6hm2-first-s-last-s-club</tspan></text>
<text x='453.60' y='636.57' style='font-size:10.69px;font-style:normal;font-weight:normal;fill:#000000;fill-opacity:1;stroke:none;font-family:Arial'><tspan>%r7hm2-first-s-last-s-club</tspan></text>
<text x='453.60' y='654.39' style='font-size:10.69px;font-style:normal;font-weight:normal;fill:#000000;fill-opacity:1;stroke:none;font-family:Arial'><tspan>%r8hm2-first-s-last-s-club</tspan></text>
   </g>
</svg>
